<svg xmlns="http://www.w3.org/2000/svg" version="1.1" xmlns:xlink="http://www.w3.org/1999/xlink" xmlns:svgjs="http://svgjs.com/svgjs" width="1440" height="560" preserveAspectRatio="none" viewBox="0 0 1440 560"><g mask="url(&quot;#SvgjsMask1017&quot;)" fill="none"><rect width="1440" height="560" x="0" y="0" fill="url(#SvgjsLinearGradient1018)"></rect><path d="M0 330.39L10 361.36L20 416.78L30 420.76L40 443.34L50 424.97L60 422.98L70 419.56L80 449.79L90 481.3L100 458.84L110 522.72L120 479.29L130 523.98L140 472.18L150 496.59L160 545.41L170 506.82L180 511.91L190 525.99L200 551L210 519.94L220 488.15L230 514.07L240 558.6L250 552.9L260 509.53L270 463.57L280 533.11L290 550.66L300 540.06L310 490.8L320 538.48L330 514.17L340 447.03L350 420.99L360 377.74L370 309.02L380 281.7L390 345.2L400 322.25L410 360.18L420 303.29L430 307.74L440 335.72L450 373.02L460 377.57L470 308.37L480 322.73L490 363.2L500 391.05L510 398.12L520 398.57L530 423.92L540 428.6L550 382.94L560 388.41L570 454.43L580 497.64L590 548.79L600 500.84L610 528.49L620 500.41L630 521.29L640 475.68L650 454.25L660 394.19L670 423.63L680 482.64L690 511.92L700 470.47L710 496.71L720 483.32L730 449.78L740 454.32L750 409.29L760 399.44L770 358.78L780 314.46L790 320.77L800 365.4L810 310.76L820 261.81L830 301.52L840 244.26L850 269.36L860 274.81L870 275.55L880 294.21L890 353.73L900 351.81L910 322.23L920 305.07L930 251.42L940 209.33L950 155.67L960 214.17L970 220.17L980 203.18L990 216.45L1000 206.42L1010 268.63L1020 312.09L1030 295.62L1040 333.46L1050 353.93L1060 405.19L1070 395.08L1080 367.07L1090 413.14L1100 350.15L1110 314.11L1120 327.4L1130 382.53L1140 445.96L1150 439.21L1160 506.55L1170 496.7L1180 500.12L1190 525.11L1200 547.36L1210 559.15L1220 502.89L1230 509.37L1240 446.4L1250 495.58L1260 427.26L1270 489.76L1280 550.66L1290 539.52L1300 500.51L1310 464.53L1320 506.44L1330 440.91L1340 408.66L1350 375.19L1360 414.14L1370 464.28L1380 477.3L1390 420.69L1400 430.06L1410 401.82L1420 430.83L1430 475.98L1440 473.75" stroke="rgba(15, 157, 88, 1)" stroke-width="2"></path><path d="M0 330.39L10 361.36L20 416.78L30 420.76L40 443.34L50 424.97L60 422.98L70 419.56L80 449.79L90 481.3L100 458.84L110 522.72L120 479.29L130 523.98L140 472.18L150 496.59L160 545.41L170 506.82L180 511.91L190 525.99L200 551L210 519.94L220 488.15L230 514.07L240 558.6L250 552.9L260 509.53L270 463.57L280 533.11L290 550.66L300 540.06L310 490.8L320 538.48L330 514.17L340 447.03L350 420.99L360 377.74L370 309.02L380 281.7L390 345.2L400 322.25L410 360.18L420 303.29L430 307.74L440 335.72L450 373.02L460 377.57L470 308.37L480 322.73L490 363.2L500 391.05L510 398.12L520 398.57L530 423.92L540 428.6L550 382.94L560 388.41L570 454.43L580 497.64L590 548.79L600 500.84L610 528.49L620 500.41L630 521.29L640 475.68L650 454.25L660 394.19L670 423.63L680 482.64L690 511.92L700 470.47L710 496.71L720 483.32L730 449.78L740 454.32L750 409.29L760 399.44L770 358.78L780 314.46L790 320.77L800 365.4L810 310.76L820 261.81L830 301.52L840 244.26L850 269.36L860 274.81L870 275.55L880 294.21L890 353.73L900 351.81L910 322.23L920 305.07L930 251.42L940 209.33L950 155.67L960 214.17L970 220.17L980 203.18L990 216.45L1000 206.42L1010 268.63L1020 312.09L1030 295.62L1040 333.46L1050 353.93L1060 405.19L1070 395.08L1080 367.07L1090 413.14L1100 350.15L1110 314.11L1120 327.4L1130 382.53L1140 445.96L1150 439.21L1160 506.55L1170 496.7L1180 500.12L1190 525.11L1200 547.36L1210 559.15L1220 502.89L1230 509.37L1240 446.4L1250 495.58L1260 427.26L1270 489.76L1280 550.66L1290 539.52L1300 500.51L1310 464.53L1320 506.44L1330 440.91L1340 408.66L1350 375.19L1360 414.14L1370 464.28L1380 477.3L1390 420.69L1400 430.06L1410 401.82L1420 430.83L1430 475.98L1440 473.75L1440 560L0 560z" fill="url(#SvgjsLinearGradient1019)"></path></g><defs><mask id="SvgjsMask1017"><rect width="1440" height="560" fill="#ffffff"></rect></mask><linearGradient x1="15.28%" y1="-39.29%" x2="84.72%" y2="139.29%" gradientUnits="userSpaceOnUse" id="SvgjsLinearGradient1018"><stop stop-color="#0e2a47" offset="0"></stop><stop stop-color="rgba(0, 69, 158, 1)" offset="0.78"></stop><stop stop-color="#00459e" offset="1"></stop></linearGradient><linearGradient x1="50%" y1="0%" x2="50%" y2="100%" id="SvgjsLinearGradient1019"><stop stop-opacity="0.65" stop-color="rgba(15, 157, 88, 1)" offset="0"></stop><stop stop-opacity="0" stop-color="#55efa4" offset="0.8"></stop></linearGradient></defs></svg>