<svg xmlns="http://www.w3.org/2000/svg" version="1.1" xmlns:xlink="http://www.w3.org/1999/xlink" xmlns:svgjs="http://svgjs.com/svgjs" width="1440" height="560" preserveAspectRatio="none" viewBox="0 0 1440 560"><g mask="url(&quot;#SvgjsMask1010&quot;)" fill="none"><rect width="1440" height="560" x="0" y="0" fill="#0e2a47"></rect><path d="M-99.97 373.36L-99.97 373.36" stroke="#132e65" stroke-width="1.5"></path><path d="M-99.97 373.36L-86.69 527.69" stroke="#132e65" stroke-width="1.5"></path><path d="M-99.97 373.36L55.26 384.64" stroke="#132e65" stroke-width="1.5"></path><path d="M-99.97 373.36L41.98 554.19" stroke="#132e65" stroke-width="1.5"></path><path d="M-86.69 527.69L-86.69 527.69" stroke="#132e65" stroke-width="1.5"></path><path d="M-86.69 527.69L41.98 554.19" stroke="#132e65" stroke-width="1.5"></path><path d="M-86.69 527.69L63.86 656.84" stroke="#132e65" stroke-width="1.5"></path><path d="M-86.69 527.69L55.26 384.64" stroke="#132e65" stroke-width="1.5"></path><path d="M55.26 384.64L55.26 384.64" stroke="#132e65" stroke-width="1.5"></path><path d="M55.26 384.64L194.31 339.78" stroke="#132e65" stroke-width="1.5"></path><path d="M55.26 384.64L41.98 554.19" stroke="#132e65" stroke-width="1.5"></path><path d="M41.98 554.19L41.98 554.19" stroke="#132e65" stroke-width="1.5"></path><path d="M41.98 554.19L63.86 656.84" stroke="#132e65" stroke-width="1.5"></path><path d="M41.98 554.19L241.24 501" stroke="#132e65" stroke-width="1.5"></path><path d="M41.98 554.19L194.31 339.78" stroke="#132e65" stroke-width="1.5"></path><path d="M63.86 656.84L63.86 656.84" stroke="#132e65" stroke-width="1.5"></path><path d="M194.31 339.78L194.31 339.78" stroke="#132e65" stroke-width="1.5"></path><path d="M194.31 339.78L241.24 501" stroke="#132e65" stroke-width="1.5"></path><path d="M194.31 339.78L370.02 380.27" stroke="#132e65" stroke-width="1.5"></path><path d="M241.24 501L241.24 501" stroke="#132e65" stroke-width="1.5"></path><path d="M241.24 501L355.83 555.11" stroke="#132e65" stroke-width="1.5"></path><path d="M241.24 501L370.02 380.27" stroke="#132e65" stroke-width="1.5"></path><path d="M241.24 501L55.26 384.64" stroke="#132e65" stroke-width="1.5"></path><path d="M241.24 501L63.86 656.84" stroke="#132e65" stroke-width="1.5"></path><path d="M370.02 380.27L370.02 380.27" stroke="#132e65" stroke-width="1.5"></path><path d="M370.02 380.27L497.89 362.86" stroke="#132e65" stroke-width="1.5"></path><path d="M370.02 380.27L355.83 555.11" stroke="#132e65" stroke-width="1.5"></path><path d="M370.02 380.27L515.98 528.17" stroke="#132e65" stroke-width="1.5"></path><path d="M355.83 555.11L355.83 555.11" stroke="#132e65" stroke-width="1.5"></path><path d="M355.83 555.11L401.78 692.65" stroke="#132e65" stroke-width="1.5"></path><path d="M355.83 555.11L515.98 528.17" stroke="#132e65" stroke-width="1.5"></path><path d="M355.83 555.11L519.77 651.3" stroke="#132e65" stroke-width="1.5"></path><path d="M401.78 692.65L401.78 692.65" stroke="#132e65" stroke-width="1.5"></path><path d="M401.78 692.65L519.77 651.3" stroke="#132e65" stroke-width="1.5"></path><path d="M401.78 692.65L515.98 528.17" stroke="#132e65" stroke-width="1.5"></path><path d="M497.89 362.86L497.89 362.86" stroke="#132e65" stroke-width="1.5"></path><path d="M497.89 362.86L515.98 528.17" stroke="#132e65" stroke-width="1.5"></path><path d="M497.89 362.86L692.91 376.12" stroke="#132e65" stroke-width="1.5"></path><path d="M497.89 362.86L668.92 523.26" stroke="#132e65" stroke-width="1.5"></path><path d="M497.89 362.86L355.83 555.11" stroke="#132e65" stroke-width="1.5"></path><path d="M497.89 362.86L694.08 221.24" stroke="#132e65" stroke-width="1.5"></path><path d="M515.98 528.17L515.98 528.17" stroke="#132e65" stroke-width="1.5"></path><path d="M515.98 528.17L519.77 651.3" stroke="#132e65" stroke-width="1.5"></path><path d="M515.98 528.17L668.92 523.26" stroke="#132e65" stroke-width="1.5"></path><path d="M519.77 651.3L519.77 651.3" stroke="#132e65" stroke-width="1.5"></path><path d="M519.77 651.3L703.56 673.07" stroke="#132e65" stroke-width="1.5"></path><path d="M519.77 651.3L668.92 523.26" stroke="#132e65" stroke-width="1.5"></path><path d="M694.08 221.24L694.08 221.24" stroke="#132e65" stroke-width="1.5"></path><path d="M694.08 221.24L789.62 223.77" stroke="#132e65" stroke-width="1.5"></path><path d="M694.08 221.24L692.91 376.12" stroke="#132e65" stroke-width="1.5"></path><path d="M694.08 221.24L800.29 401.94" stroke="#132e65" stroke-width="1.5"></path><path d="M692.91 376.12L692.91 376.12" stroke="#132e65" stroke-width="1.5"></path><path d="M692.91 376.12L800.29 401.94" stroke="#132e65" stroke-width="1.5"></path><path d="M692.91 376.12L668.92 523.26" stroke="#132e65" stroke-width="1.5"></path><path d="M692.91 376.12L789.62 223.77" stroke="#132e65" stroke-width="1.5"></path><path d="M668.92 523.26L668.92 523.26" stroke="#132e65" stroke-width="1.5"></path><path d="M668.92 523.26L791.28 558.1" stroke="#132e65" stroke-width="1.5"></path><path d="M703.56 673.07L703.56 673.07" stroke="#132e65" stroke-width="1.5"></path><path d="M703.56 673.07L791.28 558.1" stroke="#132e65" stroke-width="1.5"></path><path d="M703.56 673.07L668.92 523.26" stroke="#132e65" stroke-width="1.5"></path><path d="M703.56 673.07L857.44 650.74" stroke="#132e65" stroke-width="1.5"></path><path d="M703.56 673.07L515.98 528.17" stroke="#132e65" stroke-width="1.5"></path><path d="M789.62 223.77L789.62 223.77" stroke="#132e65" stroke-width="1.5"></path><path d="M789.62 223.77L959.44 229.49" stroke="#132e65" stroke-width="1.5"></path><path d="M789.62 223.77L800.29 401.94" stroke="#132e65" stroke-width="1.5"></path><path d="M789.62 223.77L951.78 109.96" stroke="#132e65" stroke-width="1.5"></path><path d="M800.29 401.94L800.29 401.94" stroke="#132e65" stroke-width="1.5"></path><path d="M800.29 401.94L791.28 558.1" stroke="#132e65" stroke-width="1.5"></path><path d="M800.29 401.94L971.21 383.02" stroke="#132e65" stroke-width="1.5"></path><path d="M791.28 558.1L791.28 558.1" stroke="#132e65" stroke-width="1.5"></path><path d="M791.28 558.1L857.44 650.74" stroke="#132e65" stroke-width="1.5"></path><path d="M791.28 558.1L692.91 376.12" stroke="#132e65" stroke-width="1.5"></path><path d="M857.44 650.74L857.44 650.74" stroke="#132e65" stroke-width="1.5"></path><path d="M857.44 650.74L1002.16 651.93" stroke="#132e65" stroke-width="1.5"></path><path d="M857.44 650.74L1003.03 509.35" stroke="#132e65" stroke-width="1.5"></path><path d="M966.05 -50.43L966.05 -50.43" stroke="#132e65" stroke-width="1.5"></path><path d="M966.05 -50.43L951.78 109.96" stroke="#132e65" stroke-width="1.5"></path><path d="M966.05 -50.43L1139.87 69.57" stroke="#132e65" stroke-width="1.5"></path><path d="M966.05 -50.43L959.44 229.49" stroke="#132e65" stroke-width="1.5"></path><path d="M951.78 109.96L951.78 109.96" stroke="#132e65" stroke-width="1.5"></path><path d="M951.78 109.96L959.44 229.49" stroke="#132e65" stroke-width="1.5"></path><path d="M951.78 109.96L1139.87 69.57" stroke="#132e65" stroke-width="1.5"></path><path d="M959.44 229.49L959.44 229.49" stroke="#132e65" stroke-width="1.5"></path><path d="M959.44 229.49L971.21 383.02" stroke="#132e65" stroke-width="1.5"></path><path d="M971.21 383.02L971.21 383.02" stroke="#132e65" stroke-width="1.5"></path><path d="M971.21 383.02L1097.22 379.8" stroke="#132e65" stroke-width="1.5"></path><path d="M971.21 383.02L1003.03 509.35" stroke="#132e65" stroke-width="1.5"></path><path d="M971.21 383.02L1134.58 536.92" stroke="#132e65" stroke-width="1.5"></path><path d="M1003.03 509.35L1003.03 509.35" stroke="#132e65" stroke-width="1.5"></path><path d="M1003.03 509.35L1134.58 536.92" stroke="#132e65" stroke-width="1.5"></path><path d="M1003.03 509.35L1002.16 651.93" stroke="#132e65" stroke-width="1.5"></path><path d="M1002.16 651.93L1002.16 651.93" stroke="#132e65" stroke-width="1.5"></path><path d="M1002.16 651.93L1128.63 689.43" stroke="#132e65" stroke-width="1.5"></path><path d="M1002.16 651.93L1134.58 536.92" stroke="#132e65" stroke-width="1.5"></path><path d="M1002.16 651.93L791.28 558.1" stroke="#132e65" stroke-width="1.5"></path><path d="M1002.16 651.93L971.21 383.02" stroke="#132e65" stroke-width="1.5"></path><path d="M1139.87 69.57L1139.87 69.57" stroke="#132e65" stroke-width="1.5"></path><path d="M1139.87 69.57L1289.47 89.11" stroke="#132e65" stroke-width="1.5"></path><path d="M1139.87 69.57L1249.72 214.1" stroke="#132e65" stroke-width="1.5"></path><path d="M1097.22 379.8L1097.22 379.8" stroke="#132e65" stroke-width="1.5"></path><path d="M1097.22 379.8L1003.03 509.35" stroke="#132e65" stroke-width="1.5"></path><path d="M1097.22 379.8L1134.58 536.92" stroke="#132e65" stroke-width="1.5"></path><path d="M1097.22 379.8L1295.63 389.1" stroke="#132e65" stroke-width="1.5"></path><path d="M1097.22 379.8L959.44 229.49" stroke="#132e65" stroke-width="1.5"></path><path d="M1097.22 379.8L1249.72 214.1" stroke="#132e65" stroke-width="1.5"></path><path d="M1134.58 536.92L1134.58 536.92" stroke="#132e65" stroke-width="1.5"></path><path d="M1134.58 536.92L1128.63 689.43" stroke="#132e65" stroke-width="1.5"></path><path d="M1134.58 536.92L1290.17 541.55" stroke="#132e65" stroke-width="1.5"></path><path d="M1128.63 689.43L1128.63 689.43" stroke="#132e65" stroke-width="1.5"></path><path d="M1128.63 689.43L1298.62 692.87" stroke="#132e65" stroke-width="1.5"></path><path d="M1263.39 -65.97L1263.39 -65.97" stroke="#132e65" stroke-width="1.5"></path><path d="M1263.39 -65.97L1414.98 -69.92" stroke="#132e65" stroke-width="1.5"></path><path d="M1263.39 -65.97L1289.47 89.11" stroke="#132e65" stroke-width="1.5"></path><path d="M1263.39 -65.97L1139.87 69.57" stroke="#132e65" stroke-width="1.5"></path><path d="M1289.47 89.11L1289.47 89.11" stroke="#132e65" stroke-width="1.5"></path><path d="M1289.47 89.11L1395.46 101.62" stroke="#132e65" stroke-width="1.5"></path><path d="M1249.72 214.1L1249.72 214.1" stroke="#132e65" stroke-width="1.5"></path><path d="M1249.72 214.1L1289.47 89.11" stroke="#132e65" stroke-width="1.5"></path><path d="M1249.72 214.1L1408.59 244.4" stroke="#132e65" stroke-width="1.5"></path><path d="M1249.72 214.1L1295.63 389.1" stroke="#132e65" stroke-width="1.5"></path><path d="M1295.63 389.1L1295.63 389.1" stroke="#132e65" stroke-width="1.5"></path><path d="M1295.63 389.1L1391.3 401.26" stroke="#132e65" stroke-width="1.5"></path><path d="M1295.63 389.1L1290.17 541.55" stroke="#132e65" stroke-width="1.5"></path><path d="M1295.63 389.1L1408.59 244.4" stroke="#132e65" stroke-width="1.5"></path><path d="M1295.63 389.1L1134.58 536.92" stroke="#132e65" stroke-width="1.5"></path><path d="M1290.17 541.55L1290.17 541.55" stroke="#132e65" stroke-width="1.5"></path><path d="M1290.17 541.55L1298.62 692.87" stroke="#132e65" stroke-width="1.5"></path><path d="M1290.17 541.55L1392.61 656.59" stroke="#132e65" stroke-width="1.5"></path><path d="M1290.17 541.55L1449.76 548.4" stroke="#132e65" stroke-width="1.5"></path><path d="M1298.62 692.87L1298.62 692.87" stroke="#132e65" stroke-width="1.5"></path><path d="M1298.62 692.87L1392.61 656.59" stroke="#132e65" stroke-width="1.5"></path><path d="M1414.98 -69.92L1414.98 -69.92" stroke="#132e65" stroke-width="1.5"></path><path d="M1414.98 -69.92L1553.35 -60.14" stroke="#132e65" stroke-width="1.5"></path><path d="M1395.46 101.62L1395.46 101.62" stroke="#132e65" stroke-width="1.5"></path><path d="M1395.46 101.62L1408.59 244.4" stroke="#132e65" stroke-width="1.5"></path><path d="M1395.46 101.62L1414.98 -69.92" stroke="#132e65" stroke-width="1.5"></path><path d="M1395.46 101.62L1563.99 44.45" stroke="#132e65" stroke-width="1.5"></path><path d="M1395.46 101.62L1249.72 214.1" stroke="#132e65" stroke-width="1.5"></path><path d="M1395.46 101.62L1263.39 -65.97" stroke="#132e65" stroke-width="1.5"></path><path d="M1408.59 244.4L1408.59 244.4" stroke="#132e65" stroke-width="1.5"></path><path d="M1408.59 244.4L1391.3 401.26" stroke="#132e65" stroke-width="1.5"></path><path d="M1391.3 401.26L1391.3 401.26" stroke="#132e65" stroke-width="1.5"></path><path d="M1391.3 401.26L1449.76 548.4" stroke="#132e65" stroke-width="1.5"></path><path d="M1391.3 401.26L1290.17 541.55" stroke="#132e65" stroke-width="1.5"></path><path d="M1391.3 401.26L1544.3 544.89" stroke="#132e65" stroke-width="1.5"></path><path d="M1449.76 548.4L1449.76 548.4" stroke="#132e65" stroke-width="1.5"></path><path d="M1449.76 548.4L1544.3 544.89" stroke="#132e65" stroke-width="1.5"></path><path d="M1449.76 548.4L1392.61 656.59" stroke="#132e65" stroke-width="1.5"></path><path d="M1392.61 656.59L1392.61 656.59" stroke="#132e65" stroke-width="1.5"></path><path d="M1553.35 -60.14L1553.35 -60.14" stroke="#132e65" stroke-width="1.5"></path><path d="M1553.35 -60.14L1563.99 44.45" stroke="#132e65" stroke-width="1.5"></path><path d="M1553.35 -60.14L1395.46 101.62" stroke="#132e65" stroke-width="1.5"></path><path d="M1553.35 -60.14L1598.17 194.16" stroke="#132e65" stroke-width="1.5"></path><path d="M1553.35 -60.14L1263.39 -65.97" stroke="#132e65" stroke-width="1.5"></path><path d="M1563.99 44.45L1563.99 44.45" stroke="#132e65" stroke-width="1.5"></path><path d="M1563.99 44.45L1598.17 194.16" stroke="#132e65" stroke-width="1.5"></path><path d="M1563.99 44.45L1414.98 -69.92" stroke="#132e65" stroke-width="1.5"></path><path d="M1563.99 44.45L1408.59 244.4" stroke="#132e65" stroke-width="1.5"></path><path d="M1598.17 194.16L1598.17 194.16" stroke="#132e65" stroke-width="1.5"></path><path d="M1598.17 194.16L1594.52 343.86" stroke="#132e65" stroke-width="1.5"></path><path d="M1598.17 194.16L1408.59 244.4" stroke="#132e65" stroke-width="1.5"></path><path d="M1598.17 194.16L1395.46 101.62" stroke="#132e65" stroke-width="1.5"></path><path d="M1594.52 343.86L1594.52 343.86" stroke="#132e65" stroke-width="1.5"></path><path d="M1594.52 343.86L1544.3 544.89" stroke="#132e65" stroke-width="1.5"></path><path d="M1594.52 343.86L1408.59 244.4" stroke="#132e65" stroke-width="1.5"></path><path d="M1544.3 544.89L1544.3 544.89" stroke="#132e65" stroke-width="1.5"></path><path d="M1544.3 544.89L1591.55 647.11" stroke="#132e65" stroke-width="1.5"></path><path d="M1544.3 544.89L1392.61 656.59" stroke="#132e65" stroke-width="1.5"></path><path d="M1591.55 647.11L1591.55 647.11" stroke="#132e65" stroke-width="1.5"></path><path d="M1591.55 647.11L1449.76 548.4" stroke="#132e65" stroke-width="1.5"></path><path d="M1591.55 647.11L1392.61 656.59" stroke="#132e65" stroke-width="1.5"></path><circle r="5" cx="-99.97" cy="373.36" fill="#132e65"></circle><circle r="5" cx="-86.69" cy="527.69" fill="#132e65"></circle><circle r="5" cx="55.26" cy="384.64" fill="#132e65"></circle><circle r="5" cx="41.98" cy="554.19" fill="#132e65"></circle><circle r="5" cx="63.86" cy="656.84" fill="#132e65"></circle><circle r="5" cx="194.31" cy="339.78" fill="#132e65"></circle><circle r="5" cx="241.24" cy="501" fill="#132e65"></circle><circle r="5" cx="370.02" cy="380.27" fill="#132e65"></circle><circle r="5" cx="355.83" cy="555.11" fill="#132e65"></circle><circle r="5" cx="401.78" cy="692.65" fill="#132e65"></circle><circle r="5" cx="497.89" cy="362.86" fill="#132e65"></circle><circle r="5" cx="515.98" cy="528.17" fill="#132e65"></circle><circle r="5" cx="519.77" cy="651.3" fill="#132e65"></circle><circle r="5" cx="694.08" cy="221.24" fill="#132e65"></circle><circle r="5" cx="692.91" cy="376.12" fill="#132e65"></circle><circle r="5" cx="668.92" cy="523.26" fill="#132e65"></circle><circle r="5" cx="703.56" cy="673.07" fill="#132e65"></circle><circle r="5" cx="789.62" cy="223.77" fill="#132e65"></circle><circle r="5" cx="800.29" cy="401.94" fill="#132e65"></circle><circle r="5" cx="791.28" cy="558.1" fill="#132e65"></circle><circle r="5" cx="857.44" cy="650.74" fill="#132e65"></circle><circle r="5" cx="966.05" cy="-50.43" fill="#132e65"></circle><circle r="5" cx="951.78" cy="109.96" fill="#132e65"></circle><circle r="5" cx="959.44" cy="229.49" fill="#132e65"></circle><circle r="5" cx="971.21" cy="383.02" fill="#132e65"></circle><circle r="5" cx="1003.03" cy="509.35" fill="#132e65"></circle><circle r="5" cx="1002.16" cy="651.93" fill="#132e65"></circle><circle r="5" cx="1139.87" cy="69.57" fill="#132e65"></circle><circle r="5" cx="1097.22" cy="379.8" fill="#132e65"></circle><circle r="5" cx="1134.58" cy="536.92" fill="#132e65"></circle><circle r="5" cx="1128.63" cy="689.43" fill="#132e65"></circle><circle r="5" cx="1263.39" cy="-65.97" fill="#132e65"></circle><circle r="5" cx="1289.47" cy="89.11" fill="#132e65"></circle><circle r="5" cx="1249.72" cy="214.1" fill="#132e65"></circle><circle r="5" cx="1295.63" cy="389.1" fill="#132e65"></circle><circle r="5" cx="1290.17" cy="541.55" fill="#132e65"></circle><circle r="5" cx="1298.62" cy="692.87" fill="#132e65"></circle><circle r="5" cx="1414.98" cy="-69.92" fill="#132e65"></circle><circle r="5" cx="1395.46" cy="101.62" fill="#132e65"></circle><circle r="5" cx="1408.59" cy="244.4" fill="#132e65"></circle><circle r="5" cx="1391.3" cy="401.26" fill="#132e65"></circle><circle r="5" cx="1449.76" cy="548.4" fill="#132e65"></circle><circle r="5" cx="1392.61" cy="656.59" fill="#132e65"></circle><circle r="5" cx="1553.35" cy="-60.14" fill="#132e65"></circle><circle r="5" cx="1563.99" cy="44.45" fill="#132e65"></circle><circle r="5" cx="1598.17" cy="194.16" fill="#132e65"></circle><circle r="5" cx="1594.52" cy="343.86" fill="#132e65"></circle><circle r="5" cx="1544.3" cy="544.89" fill="#132e65"></circle><circle r="5" cx="1591.55" cy="647.11" fill="#132e65"></circle><path d="M-96.7 700.53L-96.7 700.53" stroke="hsl(228.5, 77.2%, 51.5%)" stroke-width="1.5"></path><path d="M-96.7 700.53L-98.27 534.56" stroke="hsl(228.5, 77.2%, 51.5%)" stroke-width="1.5"></path><path d="M100.4 552.87L100.4 552.87" stroke="hsl(228.5, 77.2%, 51.5%)" stroke-width="1.5"></path><path d="M100.4 552.87L68.37 675.12" stroke="hsl(228.5, 77.2%, 51.5%)" stroke-width="1.5"></path><path d="M100.4 552.87L245.79 500.07" stroke="hsl(228.5, 77.2%, 51.5%)" stroke-width="1.5"></path><path d="M100.4 552.87L249.6 644.82" stroke="hsl(228.5, 77.2%, 51.5%)" stroke-width="1.5"></path><path d="M100.4 552.87L-98.27 534.56" stroke="hsl(228.5, 77.2%, 51.5%)" stroke-width="1.5"></path><path d="M100.4 552.87L-96.7 700.53" stroke="hsl(228.5, 77.2%, 51.5%)" stroke-width="1.5"></path><path d="M836.67 340.09L836.67 340.09" stroke="hsl(228.5, 77.2%, 51.5%)" stroke-width="1.5"></path><path d="M836.67 340.09L822.48 494.07" stroke="hsl(228.5, 77.2%, 51.5%)" stroke-width="1.5"></path><path d="M836.67 340.09L998.46 240.33" stroke="hsl(228.5, 77.2%, 51.5%)" stroke-width="1.5"></path><path d="M836.67 340.09L975.58 505.9" stroke="hsl(228.5, 77.2%, 51.5%)" stroke-width="1.5"></path><path d="M836.67 340.09L650.01 519.54" stroke="hsl(228.5, 77.2%, 51.5%)" stroke-width="1.5"></path><path d="M822.48 494.07L822.48 494.07" stroke="hsl(228.5, 77.2%, 51.5%)" stroke-width="1.5"></path><path d="M822.48 494.07L975.58 505.9" stroke="hsl(228.5, 77.2%, 51.5%)" stroke-width="1.5"></path><path d="M822.48 494.07L650.01 519.54" stroke="hsl(228.5, 77.2%, 51.5%)" stroke-width="1.5"></path><path d="M822.48 494.07L793.3 679.95" stroke="hsl(228.5, 77.2%, 51.5%)" stroke-width="1.5"></path><path d="M822.48 494.07L940.46 703.03" stroke="hsl(228.5, 77.2%, 51.5%)" stroke-width="1.5"></path><path d="M975.58 505.9L975.58 505.9" stroke="hsl(228.5, 77.2%, 51.5%)" stroke-width="1.5"></path><path d="M975.58 505.9L1160.04 550.43" stroke="hsl(228.5, 77.2%, 51.5%)" stroke-width="1.5"></path><path d="M975.58 505.9L940.46 703.03" stroke="hsl(228.5, 77.2%, 51.5%)" stroke-width="1.5"></path><path d="M975.58 505.9L1150.25 348.26" stroke="hsl(228.5, 77.2%, 51.5%)" stroke-width="1.5"></path><path d="M1150.25 348.26L1150.25 348.26" stroke="hsl(228.5, 77.2%, 51.5%)" stroke-width="1.5"></path><path d="M1150.25 348.26L1252.44 355.96" stroke="hsl(228.5, 77.2%, 51.5%)" stroke-width="1.5"></path><path d="M1150.25 348.26L1274.79 223.76" stroke="hsl(228.5, 77.2%, 51.5%)" stroke-width="1.5"></path><path d="M1150.25 348.26L998.46 240.33" stroke="hsl(228.5, 77.2%, 51.5%)" stroke-width="1.5"></path><path d="M1150.25 348.26L1258.24 515.65" stroke="hsl(228.5, 77.2%, 51.5%)" stroke-width="1.5"></path><path d="M1280.73 74.17L1280.73 74.17" stroke="hsl(228.5, 77.2%, 51.5%)" stroke-width="1.5"></path><path d="M1280.73 74.17L1387.77 102.74" stroke="hsl(228.5, 77.2%, 51.5%)" stroke-width="1.5"></path><path d="M1280.73 74.17L1284.4 -49.32" stroke="hsl(228.5, 77.2%, 51.5%)" stroke-width="1.5"></path><path d="M1280.73 74.17L1274.79 223.76" stroke="hsl(228.5, 77.2%, 51.5%)" stroke-width="1.5"></path><path d="M1280.73 74.17L1396.68 -70.63" stroke="hsl(228.5, 77.2%, 51.5%)" stroke-width="1.5"></path><path d="M1280.73 74.17L1449.64 221.89" stroke="hsl(228.5, 77.2%, 51.5%)" stroke-width="1.5"></path><path d="M1280.73 74.17L1252.44 355.96" stroke="hsl(228.5, 77.2%, 51.5%)" stroke-width="1.5"></path><path d="M1454.7 669.72L1454.7 669.72" stroke="hsl(228.5, 77.2%, 51.5%)" stroke-width="1.5"></path><path d="M1454.7 669.72L1539.18 639.92" stroke="hsl(228.5, 77.2%, 51.5%)" stroke-width="1.5"></path><path d="M1454.7 669.72L1402.61 517.76" stroke="hsl(228.5, 77.2%, 51.5%)" stroke-width="1.5"></path><path d="M1595.94 487.69L1595.94 487.69" stroke="hsl(228.5, 77.2%, 51.5%)" stroke-width="1.5"></path><path d="M1595.94 487.69L1597.76 410.96" stroke="hsl(228.5, 77.2%, 51.5%)" stroke-width="1.5"></path><path d="M1595.94 487.69L1539.18 639.92" stroke="hsl(228.5, 77.2%, 51.5%)" stroke-width="1.5"></path><path d="M1539.18 639.92L1539.18 639.92" stroke="hsl(228.5, 77.2%, 51.5%)" stroke-width="1.5"></path><path d="M1539.18 639.92L1402.61 517.76" stroke="hsl(228.5, 77.2%, 51.5%)" stroke-width="1.5"></path><path d="M1539.18 639.92L1597.76 410.96" stroke="hsl(228.5, 77.2%, 51.5%)" stroke-width="1.5"></path><path d="M1539.18 639.92L1268.19 646.04" stroke="hsl(228.5, 77.2%, 51.5%)" stroke-width="1.5"></path><path d="M1539.18 639.92L1258.24 515.65" stroke="hsl(228.5, 77.2%, 51.5%)" stroke-width="1.5"></path><path d="M-98.27 534.56L-98.27 534.56" stroke="hsl(228.5, 77.2%, 51.5%)" stroke-width="1.5"></path><path d="M68.37 675.12L68.37 675.12" stroke="hsl(228.5, 77.2%, 51.5%)" stroke-width="1.5"></path><path d="M68.37 675.12L-96.7 700.53" stroke="hsl(228.5, 77.2%, 51.5%)" stroke-width="1.5"></path><path d="M68.37 675.12L249.6 644.82" stroke="hsl(228.5, 77.2%, 51.5%)" stroke-width="1.5"></path><path d="M68.37 675.12L-98.27 534.56" stroke="hsl(228.5, 77.2%, 51.5%)" stroke-width="1.5"></path><path d="M245.79 500.07L245.79 500.07" stroke="hsl(228.5, 77.2%, 51.5%)" stroke-width="1.5"></path><path d="M245.79 500.07L387.16 490.12" stroke="hsl(228.5, 77.2%, 51.5%)" stroke-width="1.5"></path><path d="M245.79 500.07L249.6 644.82" stroke="hsl(228.5, 77.2%, 51.5%)" stroke-width="1.5"></path><path d="M245.79 500.07L404.03 642.74" stroke="hsl(228.5, 77.2%, 51.5%)" stroke-width="1.5"></path><path d="M245.79 500.07L68.37 675.12" stroke="hsl(228.5, 77.2%, 51.5%)" stroke-width="1.5"></path><path d="M249.6 644.82L249.6 644.82" stroke="hsl(228.5, 77.2%, 51.5%)" stroke-width="1.5"></path><path d="M387.16 490.12L387.16 490.12" stroke="hsl(228.5, 77.2%, 51.5%)" stroke-width="1.5"></path><path d="M387.16 490.12L404.03 642.74" stroke="hsl(228.5, 77.2%, 51.5%)" stroke-width="1.5"></path><path d="M387.16 490.12L544.25 512.88" stroke="hsl(228.5, 77.2%, 51.5%)" stroke-width="1.5"></path><path d="M404.03 642.74L404.03 642.74" stroke="hsl(228.5, 77.2%, 51.5%)" stroke-width="1.5"></path><path d="M404.03 642.74L528.55 684.97" stroke="hsl(228.5, 77.2%, 51.5%)" stroke-width="1.5"></path><path d="M404.03 642.74L249.6 644.82" stroke="hsl(228.5, 77.2%, 51.5%)" stroke-width="1.5"></path><path d="M404.03 642.74L544.25 512.88" stroke="hsl(228.5, 77.2%, 51.5%)" stroke-width="1.5"></path><path d="M544.25 512.88L544.25 512.88" stroke="hsl(228.5, 77.2%, 51.5%)" stroke-width="1.5"></path><path d="M544.25 512.88L650.01 519.54" stroke="hsl(228.5, 77.2%, 51.5%)" stroke-width="1.5"></path><path d="M544.25 512.88L528.55 684.97" stroke="hsl(228.5, 77.2%, 51.5%)" stroke-width="1.5"></path><path d="M544.25 512.88L663.02 694.13" stroke="hsl(228.5, 77.2%, 51.5%)" stroke-width="1.5"></path><path d="M544.25 512.88L822.48 494.07" stroke="hsl(228.5, 77.2%, 51.5%)" stroke-width="1.5"></path><path d="M528.55 684.97L528.55 684.97" stroke="hsl(228.5, 77.2%, 51.5%)" stroke-width="1.5"></path><path d="M528.55 684.97L663.02 694.13" stroke="hsl(228.5, 77.2%, 51.5%)" stroke-width="1.5"></path><path d="M528.55 684.97L650.01 519.54" stroke="hsl(228.5, 77.2%, 51.5%)" stroke-width="1.5"></path><path d="M650.01 519.54L650.01 519.54" stroke="hsl(228.5, 77.2%, 51.5%)" stroke-width="1.5"></path><path d="M650.01 519.54L663.02 694.13" stroke="hsl(228.5, 77.2%, 51.5%)" stroke-width="1.5"></path><path d="M650.01 519.54L793.3 679.95" stroke="hsl(228.5, 77.2%, 51.5%)" stroke-width="1.5"></path><path d="M663.02 694.13L663.02 694.13" stroke="hsl(228.5, 77.2%, 51.5%)" stroke-width="1.5"></path><path d="M663.02 694.13L793.3 679.95" stroke="hsl(228.5, 77.2%, 51.5%)" stroke-width="1.5"></path><path d="M663.02 694.13L822.48 494.07" stroke="hsl(228.5, 77.2%, 51.5%)" stroke-width="1.5"></path><path d="M663.02 694.13L404.03 642.74" stroke="hsl(228.5, 77.2%, 51.5%)" stroke-width="1.5"></path><path d="M793.3 679.95L793.3 679.95" stroke="hsl(228.5, 77.2%, 51.5%)" stroke-width="1.5"></path><path d="M793.3 679.95L940.46 703.03" stroke="hsl(228.5, 77.2%, 51.5%)" stroke-width="1.5"></path><path d="M793.3 679.95L975.58 505.9" stroke="hsl(228.5, 77.2%, 51.5%)" stroke-width="1.5"></path><path d="M793.3 679.95L528.55 684.97" stroke="hsl(228.5, 77.2%, 51.5%)" stroke-width="1.5"></path><path d="M998.46 240.33L998.46 240.33" stroke="hsl(228.5, 77.2%, 51.5%)" stroke-width="1.5"></path><path d="M940.46 703.03L940.46 703.03" stroke="hsl(228.5, 77.2%, 51.5%)" stroke-width="1.5"></path><path d="M940.46 703.03L1100.47 708.6" stroke="hsl(228.5, 77.2%, 51.5%)" stroke-width="1.5"></path><path d="M1160.04 550.43L1160.04 550.43" stroke="hsl(228.5, 77.2%, 51.5%)" stroke-width="1.5"></path><path d="M1160.04 550.43L1258.24 515.65" stroke="hsl(228.5, 77.2%, 51.5%)" stroke-width="1.5"></path><path d="M1160.04 550.43L1268.19 646.04" stroke="hsl(228.5, 77.2%, 51.5%)" stroke-width="1.5"></path><path d="M1160.04 550.43L1100.47 708.6" stroke="hsl(228.5, 77.2%, 51.5%)" stroke-width="1.5"></path><path d="M1160.04 550.43L1150.25 348.26" stroke="hsl(228.5, 77.2%, 51.5%)" stroke-width="1.5"></path><path d="M1100.47 708.6L1100.47 708.6" stroke="hsl(228.5, 77.2%, 51.5%)" stroke-width="1.5"></path><path d="M1100.47 708.6L1268.19 646.04" stroke="hsl(228.5, 77.2%, 51.5%)" stroke-width="1.5"></path><path d="M1100.47 708.6L975.58 505.9" stroke="hsl(228.5, 77.2%, 51.5%)" stroke-width="1.5"></path><path d="M1284.4 -49.32L1284.4 -49.32" stroke="hsl(228.5, 77.2%, 51.5%)" stroke-width="1.5"></path><path d="M1284.4 -49.32L1396.68 -70.63" stroke="hsl(228.5, 77.2%, 51.5%)" stroke-width="1.5"></path><path d="M1284.4 -49.32L1387.77 102.74" stroke="hsl(228.5, 77.2%, 51.5%)" stroke-width="1.5"></path><path d="M1284.4 -49.32L1274.79 223.76" stroke="hsl(228.5, 77.2%, 51.5%)" stroke-width="1.5"></path><path d="M1274.79 223.76L1274.79 223.76" stroke="hsl(228.5, 77.2%, 51.5%)" stroke-width="1.5"></path><path d="M1274.79 223.76L1252.44 355.96" stroke="hsl(228.5, 77.2%, 51.5%)" stroke-width="1.5"></path><path d="M1274.79 223.76L1387.77 102.74" stroke="hsl(228.5, 77.2%, 51.5%)" stroke-width="1.5"></path><path d="M1274.79 223.76L1449.64 221.89" stroke="hsl(228.5, 77.2%, 51.5%)" stroke-width="1.5"></path><path d="M1252.44 355.96L1252.44 355.96" stroke="hsl(228.5, 77.2%, 51.5%)" stroke-width="1.5"></path><path d="M1252.44 355.96L1400.61 349.64" stroke="hsl(228.5, 77.2%, 51.5%)" stroke-width="1.5"></path><path d="M1252.44 355.96L1258.24 515.65" stroke="hsl(228.5, 77.2%, 51.5%)" stroke-width="1.5"></path><path d="M1252.44 355.96L1160.04 550.43" stroke="hsl(228.5, 77.2%, 51.5%)" stroke-width="1.5"></path><path d="M1252.44 355.96L1402.61 517.76" stroke="hsl(228.5, 77.2%, 51.5%)" stroke-width="1.5"></path><path d="M1258.24 515.65L1258.24 515.65" stroke="hsl(228.5, 77.2%, 51.5%)" stroke-width="1.5"></path><path d="M1258.24 515.65L1268.19 646.04" stroke="hsl(228.5, 77.2%, 51.5%)" stroke-width="1.5"></path><path d="M1268.19 646.04L1268.19 646.04" stroke="hsl(228.5, 77.2%, 51.5%)" stroke-width="1.5"></path><path d="M1268.19 646.04L1402.61 517.76" stroke="hsl(228.5, 77.2%, 51.5%)" stroke-width="1.5"></path><path d="M1268.19 646.04L1454.7 669.72" stroke="hsl(228.5, 77.2%, 51.5%)" stroke-width="1.5"></path><path d="M1396.68 -70.63L1396.68 -70.63" stroke="hsl(228.5, 77.2%, 51.5%)" stroke-width="1.5"></path><path d="M1396.68 -70.63L1387.77 102.74" stroke="hsl(228.5, 77.2%, 51.5%)" stroke-width="1.5"></path><path d="M1396.68 -70.63L1578.01 -108.22" stroke="hsl(228.5, 77.2%, 51.5%)" stroke-width="1.5"></path><path d="M1387.77 102.74L1387.77 102.74" stroke="hsl(228.5, 77.2%, 51.5%)" stroke-width="1.5"></path><path d="M1387.77 102.74L1449.64 221.89" stroke="hsl(228.5, 77.2%, 51.5%)" stroke-width="1.5"></path><path d="M1387.77 102.74L1612.18 105.95" stroke="hsl(228.5, 77.2%, 51.5%)" stroke-width="1.5"></path><path d="M1449.64 221.89L1449.64 221.89" stroke="hsl(228.5, 77.2%, 51.5%)" stroke-width="1.5"></path><path d="M1449.64 221.89L1400.61 349.64" stroke="hsl(228.5, 77.2%, 51.5%)" stroke-width="1.5"></path><path d="M1449.64 221.89L1596.15 222.78" stroke="hsl(228.5, 77.2%, 51.5%)" stroke-width="1.5"></path><path d="M1449.64 221.89L1612.18 105.95" stroke="hsl(228.5, 77.2%, 51.5%)" stroke-width="1.5"></path><path d="M1400.61 349.64L1400.61 349.64" stroke="hsl(228.5, 77.2%, 51.5%)" stroke-width="1.5"></path><path d="M1402.61 517.76L1402.61 517.76" stroke="hsl(228.5, 77.2%, 51.5%)" stroke-width="1.5"></path><path d="M1402.61 517.76L1258.24 515.65" stroke="hsl(228.5, 77.2%, 51.5%)" stroke-width="1.5"></path><path d="M1402.61 517.76L1400.61 349.64" stroke="hsl(228.5, 77.2%, 51.5%)" stroke-width="1.5"></path><path d="M1578.01 -108.22L1578.01 -108.22" stroke="hsl(228.5, 77.2%, 51.5%)" stroke-width="1.5"></path><path d="M1578.01 -108.22L1612.18 105.95" stroke="hsl(228.5, 77.2%, 51.5%)" stroke-width="1.5"></path><path d="M1612.18 105.95L1612.18 105.95" stroke="hsl(228.5, 77.2%, 51.5%)" stroke-width="1.5"></path><path d="M1612.18 105.95L1596.15 222.78" stroke="hsl(228.5, 77.2%, 51.5%)" stroke-width="1.5"></path><path d="M1612.18 105.95L1396.68 -70.63" stroke="hsl(228.5, 77.2%, 51.5%)" stroke-width="1.5"></path><path d="M1596.15 222.78L1596.15 222.78" stroke="hsl(228.5, 77.2%, 51.5%)" stroke-width="1.5"></path><path d="M1596.15 222.78L1597.76 410.96" stroke="hsl(228.5, 77.2%, 51.5%)" stroke-width="1.5"></path><path d="M1596.15 222.78L1400.61 349.64" stroke="hsl(228.5, 77.2%, 51.5%)" stroke-width="1.5"></path><path d="M1596.15 222.78L1387.77 102.74" stroke="hsl(228.5, 77.2%, 51.5%)" stroke-width="1.5"></path><path d="M1596.15 222.78L1595.94 487.69" stroke="hsl(228.5, 77.2%, 51.5%)" stroke-width="1.5"></path><path d="M1597.76 410.96L1597.76 410.96" stroke="hsl(228.5, 77.2%, 51.5%)" stroke-width="1.5"></path><path d="M1597.76 410.96L1400.61 349.64" stroke="hsl(228.5, 77.2%, 51.5%)" stroke-width="1.5"></path><path d="M1597.76 410.96L1402.61 517.76" stroke="hsl(228.5, 77.2%, 51.5%)" stroke-width="1.5"></path><path d="M1597.76 410.96L1449.64 221.89" stroke="hsl(228.5, 77.2%, 51.5%)" stroke-width="1.5"></path><circle r="25" cx="-96.7" cy="700.53" fill="url(#SvgjsRadialGradient1011)"></circle><circle r="25" cx="100.4" cy="552.87" fill="url(#SvgjsRadialGradient1011)"></circle><circle r="25" cx="836.67" cy="340.09" fill="url(#SvgjsRadialGradient1011)"></circle><circle r="25" cx="822.48" cy="494.07" fill="url(#SvgjsRadialGradient1011)"></circle><circle r="25" cx="975.58" cy="505.9" fill="url(#SvgjsRadialGradient1011)"></circle><circle r="25" cx="1150.25" cy="348.26" fill="url(#SvgjsRadialGradient1011)"></circle><circle r="25" cx="1280.73" cy="74.17" fill="url(#SvgjsRadialGradient1011)"></circle><circle r="25" cx="1454.7" cy="669.72" fill="url(#SvgjsRadialGradient1011)"></circle><circle r="25" cx="1595.94" cy="487.69" fill="url(#SvgjsRadialGradient1011)"></circle><circle r="25" cx="1539.18" cy="639.92" fill="url(#SvgjsRadialGradient1011)"></circle><circle r="5" cx="-98.27" cy="534.56" fill="#8b9ad9"></circle><circle r="5" cx="68.37" cy="675.12" fill="#8b9ad9"></circle><circle r="5" cx="245.79" cy="500.07" fill="#8b9ad9"></circle><circle r="5" cx="249.6" cy="644.82" fill="#8b9ad9"></circle><circle r="5" cx="387.16" cy="490.12" fill="#8b9ad9"></circle><circle r="5" cx="404.03" cy="642.74" fill="#8b9ad9"></circle><circle r="5" cx="544.25" cy="512.88" fill="#8b9ad9"></circle><circle r="5" cx="528.55" cy="684.97" fill="#8b9ad9"></circle><circle r="5" cx="650.01" cy="519.54" fill="#8b9ad9"></circle><circle r="5" cx="663.02" cy="694.13" fill="#8b9ad9"></circle><circle r="5" cx="793.3" cy="679.95" fill="#8b9ad9"></circle><circle r="5" cx="998.46" cy="240.33" fill="#8b9ad9"></circle><circle r="5" cx="940.46" cy="703.03" fill="#8b9ad9"></circle><circle r="5" cx="1160.04" cy="550.43" fill="#8b9ad9"></circle><circle r="5" cx="1100.47" cy="708.6" fill="#8b9ad9"></circle><circle r="5" cx="1284.4" cy="-49.32" fill="#8b9ad9"></circle><circle r="5" cx="1274.79" cy="223.76" fill="#8b9ad9"></circle><circle r="5" cx="1252.44" cy="355.96" fill="#8b9ad9"></circle><circle r="5" cx="1258.24" cy="515.65" fill="#8b9ad9"></circle><circle r="5" cx="1268.19" cy="646.04" fill="#8b9ad9"></circle><circle r="5" cx="1396.68" cy="-70.63" fill="#8b9ad9"></circle><circle r="5" cx="1387.77" cy="102.74" fill="#8b9ad9"></circle><circle r="5" cx="1449.64" cy="221.89" fill="#8b9ad9"></circle><circle r="5" cx="1400.61" cy="349.64" fill="#8b9ad9"></circle><circle r="5" cx="1402.61" cy="517.76" fill="#8b9ad9"></circle><circle r="5" cx="1578.01" cy="-108.22" fill="#8b9ad9"></circle><circle r="5" cx="1612.18" cy="105.95" fill="#8b9ad9"></circle><circle r="5" cx="1596.15" cy="222.78" fill="#8b9ad9"></circle><circle r="5" cx="1597.76" cy="410.96" fill="#8b9ad9"></circle></g><defs><mask id="SvgjsMask1010"><rect width="1440" height="560" fill="#ffffff"></rect></mask><radialGradient id="SvgjsRadialGradient1011"><stop stop-color="#ffffff" offset="0.1"></stop><stop stop-color="#1735b3" offset="0.2"></stop><stop stop-color="rgba(23, 53, 179, 0)" offset="1"></stop></radialGradient></defs></svg>